

Country.......: USA
Genre.........: Action, Adventure, Reality, All Sex, Anal
Date release..: 23.04.2011 [World]
Studio........: Shanes World
Duration......: 117 min.
More..........: http://store.kporn.com/1570793/shanes-world-42-paradise-island-porn-movies.html

Pilot :
That's right the party crew is back! This time we took everyone to St. Martin for a dance party that never ended! Vanessa was ready for Michael before we even touched that sand! Tori and Johnny made use of the outdoor pool before Brooklyn ordered up some sex on the beach! Tori showed the locals a thing or two on a sex filled boat ride and Brooklyn and Michael down at a beach bar. Jet skis, para-sailing, and scuba diving couldn''t stop this group from non-stop sex! Grab your flippers and join in on the skinny dipping now!

Cats :
Tori Black, Johnny Castle, Brooklyn Lee, Michael Vegas, Vanessa Cage

Data Technical :
!!! SAMPLE !!!
Audio.....: English
Subtitles.: None
[ CD1 ]
Format                           : AVI
Format/Info                      : Audio Video Interleave
File size                        : 696 MiB
Duration                         : 59mn 59s
Overall bit rate                 : 1 623 Kbps
Writing application              : VirtualDubMod 1.5.10.2 (build 2540/release)
Writing library                  : VirtualDubMod build 2540/release
Video
ID                               : 0
Format                           : MPEG-4 Visual
Format profile                   : Advanced Simple@L5
Format settings, BVOP            : Yes
Format settings, QPel            : No
Format settings, GMC             : No warppoints
Format settings, Matrix          : Default (MPEG)
Codec ID                         : XVID
Codec ID/Hint                    : XviD
Duration                         : 59mn 59s
Bit rate                         : 1 484 Kbps
Width                            : 640 pixels
Height                           : 352 pixels
Display aspect ratio             : 16:9
Frame rate                       : 29.970 fps
Color space                      : YUV
Chroma subsampling               : 4:2:0
Bit depth                        : 8 bits
Scan type                        : Progressive
Bits/(Pixel*Frame)               : 0.220
Stream size                      : 637 MiB (91%)
Writing library                  : XviD 1.2.1 (UTC 2008-12-04)
Audio
ID                               : 1
Format                           : MPEG Audio
Format version                   : Version 1
Format profile                   : Layer 3
Mode                             : Joint stereo
Mode extension                   : MS Stereo
Codec ID                         : 55
Codec ID/Hint                    : MP3
Duration                         : 59mn 59s
Bit rate mode                    : Variable
Bit rate                         : 128 Kbps
Channel(s)                       : 2 channels
Sampling rate                    : 48.0 KHz
Stream size                      : 53.8 MiB (8%)
Alignment                        : Aligned on interleaves
Interleave, duration             : 24 ms (0.72 video frame)
Interleave, preload duration     : 505 ms
Writing library                  : LAME3.90.
Encoding settings                : -m j -V 4 -q 2 -lowpass 17.6 --abr 128
[ CD2 ]
Format                           : AVI
Format/Info                      : Audio Video Interleave
File size                        : 698 MiB
Duration                         : 57mn 23s
Overall bit rate                 : 1 701 Kbps
Writing application              : VirtualDubMod 1.5.10.2 (build 2540/release)
Writing library                  : VirtualDubMod build 2540/release
Video
ID                               : 0
Format                           : MPEG-4 Visual
Format profile                   : Advanced Simple@L5
Format settings, BVOP            : Yes
Format settings, QPel            : No
Format settings, GMC             : No warppoints
Format settings, Matrix          : Default (MPEG)
Codec ID                         : XVID
Codec ID/Hint                    : XviD
Duration                         : 57mn 23s
Bit rate                         : 1 560 Kbps
Width                            : 640 pixels
Height                           : 352 pixels
Display aspect ratio             : 16:9
Frame rate                       : 29.970 fps
Color space                      : YUV
Chroma subsampling               : 4:2:0
Bit depth                        : 8 bits
Scan type                        : Progressive
Bits/(Pixel*Frame)               : 0.231
Stream size                      : 640 MiB (92%)
Writing library                  : XviD 1.2.1 (UTC 2008-12-04)
Audio
ID                               : 1
Format                           : MPEG Audio
Format version                   : Version 1
Format profile                   : Layer 3
Mode                             : Joint stereo
Mode extension                   : MS Stereo
Codec ID                         : 55
Codec ID/Hint                    : MP3
Duration                         : 57mn 12s
Bit rate mode                    : Variable
Bit rate                         : 128 Kbps
Channel(s)                       : 2 channels
Sampling rate                    : 48.0 KHz
Stream size                      : 51.9 MiB (7%)
Alignment                        : Aligned on interleaves
Interleave, duration             : 24 ms (0.72 video frame)
Interleave, preload duration     : 520 ms

Screen : 
http://screencity.pl/uploaded/271851fb30f81eb74f63f85cb0ad445b.jpg 
http://screencity.pl/uploaded/a33751ed52393b4f9c914ba0faeb090a.jpg